<svg xmlns="http://www.w3.org/2000/svg" width="771" height="267" viewBox="0 0 771 267" fill="none"><path opacity="0.2" d="M328.564 29.0807C323.987 20.4451 317.6 13.7972 309.406 9.14957C301.267 4.44914 292.029 2.10428 281.708 2.10428H245.856H245.356V2.60428V119.396V119.896H245.856L281.948 119.896L281.95 119.896C292.219 119.842 301.454 117.47 309.645 112.771C317.839 108.07 324.174 101.448 328.645 92.9166C333.169 84.3865 335.425 74.6525 335.425 63.7273V58.3529C335.425 47.426 333.142 37.6645 328.564 29.0807ZM328.564 29.0807C328.564 29.0806 328.564 29.0804 328.564 29.0802L328.123 29.3155L328.564 29.0814C328.564 29.0812 328.564 29.081 328.564 29.0807ZM61.1947 78.7227L61.199 78.7259C64.2561 81.0241 65.8009 84.3415 65.8009 88.754C65.8009 92.7745 64.2695 95.8825 61.2053 98.1358C58.1198 100.351 53.7825 101.489 48.1351 101.489C40.5104 101.489 34.885 99.8886 31.1709 96.7733C27.4736 93.6722 25.5877 88.9992 25.5877 82.6578V82.1578H25.0877H1H0.5V82.6578C0.5 90.2874 2.44497 97.0174 6.34671 102.829L6.34851 102.832C10.3031 108.642 16.0097 113.216 23.442 116.563L23.4447 116.564C30.8777 119.857 39.1104 121.5 48.1351 121.5C61.1163 121.5 71.5033 118.623 79.245 112.817L79.2468 112.816C87.0087 106.94 90.8887 98.8469 90.8887 88.5936C90.8887 79.3743 87.7178 71.6498 81.375 65.4551C75.0499 59.2777 65.0118 54.1411 51.3204 50.0133C43.9257 47.7736 38.3515 45.3847 34.5697 42.8578C30.8879 40.3624 29.1089 37.3223 29.1089 33.7273C29.1089 29.8205 30.662 26.7059 33.7919 24.3401L33.796 24.3369C36.9324 21.9147 41.3709 20.6711 47.1748 20.6711C53.1776 20.6711 57.7652 22.1483 61.0067 25.0364L61.0101 25.0394C64.2412 27.8669 65.881 31.8617 65.881 37.0963V37.5963H66.381H90.3887H90.8887V37.0963C90.8887 30 89.0498 23.6469 85.3652 18.0523C81.7349 12.4589 76.6176 8.14861 70.0322 5.11849C63.4478 2.03533 55.9586 0.5 47.5749 0.5C39.249 0.5 31.7133 1.90005 24.9753 4.70963L24.974 4.71019C18.2883 7.52044 13.1138 11.4502 9.47684 16.5103L9.47626 16.5111C5.89166 21.5196 4.10116 27.2373 4.10116 33.6471C4.10116 46.0163 10.8628 55.8155 24.2094 63.0439L24.21 63.0443C29.1017 65.6844 35.7216 68.369 44.0582 71.1008L44.0609 71.1017C52.3776 73.7736 58.0673 76.3193 61.1947 78.7227ZM183.017 100.064V99.5642H182.517H132.041V2.60428V2.10428H131.541H107.533H107.033V2.60428V119.396V119.896H107.533H182.517H183.017V119.396V100.064ZM222.71 119.896H223.21V119.396V2.60428V2.10428H222.71H198.702H198.202V2.60428V119.396V119.896H198.702H222.71ZM302.844 31.6328L302.845 31.6344C307.653 37.6061 310.097 46.4589 310.097 58.2727L310.097 64.4445C310.097 64.4456 310.097 64.4467 310.097 64.4478C309.99 75.8264 307.47 84.4959 302.605 90.5256C297.757 96.5351 290.738 99.5642 281.468 99.5642H270.364V22.5963H281.708C291.032 22.5963 298.05 25.626 302.844 31.6328ZM423.372 69.2807H423.872V68.7807V49.9305V49.4305H423.372H377.777V22.5963H431.215H431.715V22.0963V2.60428V2.10428H431.215H353.27H352.77V2.60428V119.396V119.896H353.27H431.375H431.875V119.396V100.064V99.5642H431.375H377.777V69.2807H423.372ZM558.014 72.1684H558.514V71.6684V52.2567V51.7567H558.014H512.419V22.5963H563.776H564.276V22.0963V2.60428V2.10428H563.776H487.911H487.411V2.60428V119.396V119.896H487.911H511.919H512.419V119.396V72.1684H558.014ZM578.84 119.896H579.2L579.314 119.554L587.203 95.8316H628.576L636.544 119.555L636.659 119.896H637.018H662.547H663.267L663.015 119.221L619.401 2.42936L619.28 2.10428H618.933H596.685H596.338L596.217 2.43021L552.843 119.222L552.593 119.896H553.312H578.84ZM769 119.896H769.5V119.396V2.60428V2.10428H769H745.072H744.572V2.60428V77.8247L698.685 2.34454L698.538 2.10428H698.257H674.25H673.75V2.60428V119.396V119.896H674.25H698.257H698.757V119.396V44.3352L744.565 119.656L744.711 119.896H744.992H769ZM621.759 75.3396H594.017L607.812 33.7049L621.759 75.3396Z" stroke="#4677AB"></path><path opacity="0.2" d="M71.1025 218.564H71.6025V218.064V198.652V198.152H71.1025H25.5077V168.992H76.8643H77.3643V168.492V149V148.5H76.8643H1H0.5V149V265.791V266.291H1H25.0077H25.5077V265.791V218.564H71.1025ZM91.9283 266.291H92.289L92.4028 265.949L100.292 242.227H141.665L149.633 265.951L149.748 266.291H150.107H175.635H176.356L176.104 265.617L132.49 148.825L132.368 148.5H132.021H109.774H109.426L109.305 148.826L65.9315 265.617L65.6811 266.291H66.4002H91.9283ZM282.089 266.291H282.589V265.791V149V148.5H282.089H258.161H257.661V149V224.22L211.773 148.74L211.627 148.5H211.346H187.338H186.838V149V265.791V266.291H187.338H211.346H211.846V265.791V190.731L257.654 266.051L257.8 266.291H258.081H282.089ZM134.848 221.735H107.105L120.9 180.101L134.848 221.735Z" stroke="#4677AB"></path><path opacity="0.2" d="M666.652 174.081C662.075 165.445 655.688 158.797 647.494 154.15C639.355 149.449 630.117 147.104 619.796 147.104H583.944H583.444V147.604V264.396V264.896H583.944L620.036 264.896L620.038 264.896C630.307 264.842 639.542 262.47 647.733 257.771C655.927 253.07 662.262 246.448 666.733 237.917C671.257 229.387 673.513 219.652 673.513 208.727V203.353C673.513 192.426 671.23 182.664 666.652 174.081ZM666.652 174.081C666.652 174.081 666.652 174.08 666.652 174.08L666.21 174.316L666.652 174.081C666.652 174.081 666.652 174.081 666.652 174.081ZM399.283 223.723L399.287 223.726C402.344 226.024 403.889 229.341 403.889 233.754C403.889 237.775 402.357 240.883 399.293 243.136C396.208 245.351 391.87 246.489 386.223 246.489C378.598 246.489 372.973 244.889 369.259 241.773C365.562 238.672 363.676 233.999 363.676 227.658V227.158H363.176H339.088H338.588V227.658C338.588 235.287 340.533 242.017 344.435 247.829L344.436 247.832C348.391 253.642 354.098 258.216 361.53 261.563L361.533 261.564C368.966 264.857 377.198 266.5 386.223 266.5C399.204 266.5 409.591 263.623 417.333 257.817L417.335 257.816C425.097 251.94 428.977 243.847 428.977 233.594C428.977 224.374 425.806 216.65 419.463 210.455C413.138 204.278 403.1 199.141 389.408 195.013C382.014 192.774 376.439 190.385 372.658 187.858C368.976 185.362 367.197 182.322 367.197 178.727C367.197 174.821 368.75 171.706 371.88 169.34L371.884 169.337C375.02 166.915 379.459 165.671 385.263 165.671C391.266 165.671 395.853 167.148 399.095 170.036L399.098 170.039C402.329 172.867 403.969 176.862 403.969 182.096V182.596H404.469H428.477H428.977V182.096C428.977 175 427.138 168.647 423.453 163.052C419.823 157.459 414.705 153.149 408.12 150.118C401.536 147.035 394.046 145.5 385.663 145.5C377.337 145.5 369.801 146.9 363.063 149.71L363.062 149.71C356.376 152.52 351.202 156.45 347.565 161.51L347.564 161.511C343.98 166.52 342.189 172.237 342.189 178.647C342.189 191.016 348.951 200.816 362.297 208.044L362.298 208.044C367.19 210.684 373.81 213.369 382.146 216.101L382.149 216.102C390.465 218.774 396.155 221.319 399.283 223.723ZM521.105 245.064V244.564H520.605H470.129V147.604V147.104H469.629H445.621H445.121V147.604V264.396V264.896H445.621H520.605H521.105V264.396V245.064ZM560.797 264.896H561.297V264.396V147.604V147.104H560.797H536.79H536.29V147.604V264.396V264.896H536.79H560.797ZM640.932 176.633L640.933 176.634C645.741 182.606 648.185 191.459 648.185 203.273L648.185 209.445C648.185 209.446 648.185 209.447 648.185 209.448C648.078 220.826 645.558 229.496 640.693 235.526C635.845 241.535 628.826 244.564 619.555 244.564H608.452V167.596H619.796C629.12 167.596 636.138 170.626 640.932 176.633ZM761.46 214.281H761.96V213.781V194.93V194.43H761.46H715.865V167.596H769.303H769.803V167.096V147.604V147.104H769.303H691.358H690.858V147.604V264.396V264.896H691.358H769.463H769.963V264.396V245.064V244.564H769.463H715.865V214.281H761.46Z" stroke="#4677AB"></path></svg>